<svg width="140" height="34" fill="none" xmlns="http://www.w3.org/2000/svg"><g clip-path="url(#clip0_555_89443)"><path d="M29.575 28.205a16.943 16.943 0 01-22.858 2.24 17.344 17.344 0 01-3.293-3.302A16.935 16.935 0 0129.739 5.85c5.544 6.378 5.47 16.055-.164 22.355z" fill="#FF8700"/><path d="M29.446 15.105L17.969 26.583a6.205 6.205 0 01-3.32 1.725l-4.763.824a7.73 7.73 0 00-3.17 1.314 17.37 17.37 0 01-1.758-1.54 16.36 16.36 0 01-1.534-1.762 7.69 7.69 0 001.312-3.16l.825-4.763a6.21 6.21 0 011.72-3.325L18.699 4.48c.539-.54 1.464-.581 1.979-.02a1.336 1.336 0 01-.047 1.832L9.233 17.69a1.33 1.33 0 000 1.878l.534.534a1.33 1.33 0 001.878 0L23.041 8.705a1.326 1.326 0 011.875 0l.248.249a1.326 1.326 0 010 1.873L13.771 22.22a1.328 1.328 0 000 1.875l.538.537a1.327 1.327 0 001.878 0l11.397-11.39a1.326 1.326 0 012.263.94 1.33 1.33 0 01-.401.923zm14.331 16.043V3.682h12.27c1.738 0 3.307.372 4.708 1.118a8.944 8.944 0 013.336 2.991 7.388 7.388 0 011.234 4.15 7.486 7.486 0 01-.788 3.423 8.209 8.209 0 01-2.194 2.698 9.884 9.884 0 01-3.234 1.726l7.656 11.36h-6.421L52.94 20.22h-3.587v10.928h-5.576zm5.581-15.718h6.055c.755.009 1.5-.166 2.171-.51a4.254 4.254 0 001.576-1.368 3.308 3.308 0 00.595-1.922 3.342 3.342 0 00-.595-1.942 4.256 4.256 0 00-1.576-1.374 4.632 4.632 0 00-2.17-.51h-6.056v7.626zm29.128 16.228c-2.1 0-4.016-.465-5.746-1.393a11.18 11.18 0 01-4.136-3.738 9.24 9.24 0 01-1.542-5.189 9.263 9.263 0 01.89-4.032 10.523 10.523 0 012.457-3.295 11.543 11.543 0 013.645-2.227 12.175 12.175 0 014.433-.805c2.103 0 4.019.464 5.748 1.393a11.175 11.175 0 014.136 3.747 9.32 9.32 0 011.542 5.22 9.168 9.168 0 01-.89 4.002 10.581 10.581 0 01-2.458 3.286 11.594 11.594 0 01-3.633 2.227 12.145 12.145 0 01-4.446.804zm0-4.784a5.878 5.878 0 002.994-.766 5.78 5.78 0 002.09-2.02 5.171 5.171 0 00.766-2.746 5.188 5.188 0 00-.788-2.797 5.85 5.85 0 00-2.125-2.02 5.867 5.867 0 00-2.937-.755 5.831 5.831 0 00-2.97.765 5.822 5.822 0 00-2.102 2.04 5.22 5.22 0 00-.777 2.767 5.105 5.105 0 00.798 2.805 5.8 5.8 0 002.135 1.991c.893.49 1.898.742 2.916.732v.004zm20.794 4.627a14.007 14.007 0 01-3.439-.617 10.514 10.514 0 01-2.936-1.423 6.366 6.366 0 01-1.965-2.164l4.708-1.727c.249.325.55.607.89.834.453.316.95.564 1.474.736a5.752 5.752 0 001.885.295 6.573 6.573 0 001.658-.206c.47-.11.908-.329 1.279-.638a1.42 1.42 0 00.491-1.119 1.294 1.294 0 00-.582-1.127 4.274 4.274 0 00-1.463-.609 80.671 80.671 0 00-1.703-.382 18.351 18.351 0 01-4.033-1.158c-1.241-.522-2.24-1.199-2.993-2.03-.754-.832-1.131-1.836-1.131-3.012 0-1.296.4-2.414 1.2-3.354.799-.941 1.843-1.667 3.13-2.178a11.211 11.211 0 014.17-.766c1.714-.02 3.413.311 4.994.972 1.515.647 2.714 1.558 3.598 2.734l-4.41 2.237a3.471 3.471 0 00-.891-.873 5.481 5.481 0 00-2.834-.972 7.085 7.085 0 00-1.874.158c-.503.1-.97.33-1.359.666a1.623 1.623 0 00-.514 1.253 1.181 1.181 0 00.683 1.108c.523.265 1.08.453 1.657.56a33.76 33.76 0 011.863.431 25.22 25.22 0 013.781 1.393c1.18.55 2.129 1.223 2.848 2.02a3.967 3.967 0 011.025 2.865 4.725 4.725 0 01-1.325 3.325c-.884.949-2.023 1.67-3.417 2.164a10.988 10.988 0 01-4.465.604zm21.686.157c-2.103 0-4.019-.465-5.748-1.393a11.19 11.19 0 01-4.135-3.738 9.242 9.242 0 01-1.543-5.189 9.275 9.275 0 01.892-4.032 10.525 10.525 0 012.456-3.295 11.555 11.555 0 013.645-2.227 12.172 12.172 0 014.433-.805c2.102 0 4.017.464 5.746 1.393a11.16 11.16 0 014.136 3.747 9.315 9.315 0 011.543 5.22 9.144 9.144 0 01-.891 4.002 10.594 10.594 0 01-2.457 3.286 11.594 11.594 0 01-3.633 2.227 12.145 12.145 0 01-4.444.804zm0-4.784a5.875 5.875 0 002.993-.766 5.777 5.777 0 002.09-2.02 5.168 5.168 0 00.766-2.746 5.184 5.184 0 00-.788-2.797 5.85 5.85 0 00-2.125-2.02 5.87 5.87 0 00-2.936-.755 5.83 5.83 0 00-2.971.765 5.832 5.832 0 00-2.102 2.04 5.217 5.217 0 00-.777 2.767 5.119 5.119 0 00.797 2.805 5.81 5.81 0 002.137 1.991 5.94 5.94 0 002.916.732v.004zm16.177-17.875c-.822 0-1.515-.233-2.078-.697a2.178 2.178 0 01-.847-1.756 2.19 2.19 0 01.847-1.746 3.092 3.092 0 012.056-.706c.808 0 1.491.235 2.05.706a2.203 2.203 0 01.834 1.746 2.207 2.207 0 01-.823 1.755c-.552.465-1.231.698-2.039.698zm-2.832 2.53h5.575v19.619h-5.575V11.529z" fill="#FCF8F5"/></g><defs><clipPath id="clip0_555_89443"><path fill="#fff" d="M0 0h140v33.87H0z"/></clipPath></defs></svg>