<svg width="30" height="25" viewBox="0 0 30 25" fill="none" xmlns="http://www.w3.org/2000/svg">
<path d="M29.8753 3.5934C28.7797 4.07187 27.6193 4.3856 26.4319 4.5244C27.6783 3.7925 28.6155 2.63186 29.0685 1.25932C27.8876 1.94672 26.5996 2.43089 25.2583 2.69163C24.6935 2.1 24.0141 1.62965 23.2615 1.30927C22.5089 0.988889 21.6989 0.825191 20.881 0.828165C17.5691 0.828165 14.8843 3.47355 14.8843 6.73278C14.8843 7.19463 14.9369 7.64624 15.0392 8.07739C12.6636 7.96441 10.3376 7.35745 8.2097 6.29525C6.08178 5.23305 4.19864 3.73894 2.68045 1.90824C2.1482 2.80621 1.86845 3.83131 1.87076 4.87516C1.87178 5.85142 2.11605 6.81204 2.58149 7.6702C3.04694 8.52836 3.71888 9.25702 4.53661 9.79032C3.58585 9.75962 2.65564 9.50579 1.82107 9.04932V9.12239C1.82107 11.9841 3.88915 14.3708 6.62953 14.9145C6.1145 15.0511 5.58392 15.1204 5.05107 15.1205C4.66376 15.1205 4.28815 15.084 3.9213 15.0109C4.31312 16.1917 5.06292 17.2212 6.06657 17.9564C7.07023 18.6916 8.27792 19.096 9.52192 19.1135C7.38817 20.757 4.76873 21.6449 2.07538 21.6375C1.59015 21.6375 1.11369 21.6083 0.644531 21.5557C3.39406 23.296 6.58217 24.2176 9.83615 24.2128C20.8664 24.2128 26.8967 15.2141 26.8967 7.41093L26.8762 6.64655C28.0526 5.81884 29.0687 4.78432 29.8753 3.5934Z" fill="#C2C2C2"/>
</svg>
