<svg width="28" height="27" viewBox="0 0 28 27" fill="none" xmlns="http://www.w3.org/2000/svg">
<path d="M23.2953 4.2885C22.0881 3.07219 20.651 2.10804 19.0678 1.45213C17.4846 0.796225 15.7868 0.461648 14.0731 0.467858C11.7821 0.470094 9.53189 1.07421 7.54785 2.21971C5.56381 3.36521 3.91555 5.01189 2.76815 6.99483C1.62074 8.97777 1.01446 11.2274 1.01003 13.5184C1.0056 15.8093 1.60316 18.0613 2.74288 20.0486L0.898438 26.8171L7.81511 25.0056C9.72502 26.0682 11.8711 26.6344 14.0566 26.6524C17.5308 26.6525 20.8645 25.2803 23.3319 22.8345C25.7994 20.3887 27.2008 17.0672 27.2312 13.5931C27.2196 11.8595 26.866 10.1452 26.1906 8.54852C25.5152 6.95185 24.5313 5.50418 23.2953 4.2885ZM14.0731 24.3963C12.126 24.3975 10.2145 23.8742 8.53972 22.8812L8.14448 22.6341L4.04388 23.7211L5.13078 19.7193L4.86729 19.3076C3.46625 17.0459 2.94337 14.349 3.3977 11.7276C3.85203 9.10623 5.25201 6.74254 7.33243 5.08429C9.41285 3.42604 12.0292 2.58841 14.6859 2.73008C17.3426 2.87175 19.855 3.98288 21.7473 5.85298C23.8157 7.87561 24.9998 10.6345 25.0409 13.5272C25.0149 16.4189 23.8478 19.1833 21.7938 21.2189C19.7397 23.2544 16.9649 24.3964 14.0731 24.3963ZM20.0181 16.2609C19.6887 16.0962 18.0913 15.3058 17.7949 15.207C17.4985 15.1081 17.2679 15.0423 17.0538 15.3716C16.7316 15.8131 16.3853 16.2365 16.0163 16.6397C15.8352 16.8703 15.6375 16.8867 15.3082 16.6397C13.4304 15.8976 11.8658 14.5308 10.8782 12.7697C10.5324 12.1933 11.2076 12.2262 11.8334 10.9911C11.8796 10.902 11.9037 10.8032 11.9037 10.7029C11.9037 10.6026 11.8796 10.5037 11.8334 10.4147C11.8334 10.25 11.0923 8.63612 10.8288 7.99386C10.5653 7.35159 10.3018 7.4504 10.0877 7.43394H9.44547C9.27906 7.43649 9.11512 7.47454 8.9646 7.54554C8.81408 7.61654 8.68046 7.71885 8.57265 7.84564C8.20314 8.20494 7.91492 8.63927 7.72743 9.11936C7.53994 9.59945 7.45753 10.1142 7.48575 10.6288C7.58901 11.8607 8.05297 13.035 8.81968 14.0048C10.2231 16.1057 12.1464 17.8077 14.4024 18.9453C15.5856 19.636 16.9607 19.9249 18.3219 19.7687C18.7751 19.6787 19.2044 19.4944 19.5817 19.2277C19.9591 18.961 20.2761 18.6179 20.5121 18.2207C20.7308 17.7359 20.7997 17.1968 20.7098 16.6726C20.5616 16.508 20.3475 16.4256 20.0181 16.2609Z" fill="#C2C2C2"/>
</svg>
