<svg width="52" height="19" viewBox="0 0 52 19" fill="none" xmlns="http://www.w3.org/2000/svg">
<g clip-path="url(#clip0_555_86812)">
<path d="M50.9234 10.5753H1.07252C0.928549 10.5805 0.785027 10.5564 0.650506 10.5044C0.515984 10.4524 0.393233 10.3735 0.289567 10.2726C0.185902 10.1717 0.103439 10.0507 0.0471252 9.91692C-0.00918824 9.78314 -0.038208 9.63927 -0.038208 9.49392C-0.038208 9.34857 -0.00918824 9.20471 0.0471252 9.07092C0.103439 8.93714 0.185902 8.81618 0.289567 8.71525C0.393233 8.61432 0.515984 8.53549 0.650506 8.48348C0.785027 8.43146 0.928549 8.40733 1.07252 8.41251H48.3373L41.8314 1.84709C41.7318 1.74655 41.6529 1.62722 41.599 1.4959C41.5452 1.36458 41.5175 1.22384 41.5175 1.08172C41.5176 0.939603 41.5454 0.798897 41.5994 0.667622C41.6534 0.536348 41.7324 0.417084 41.8321 0.316637C41.9317 0.216191 42.05 0.136516 42.1801 0.0821894C42.3103 0.0278625 42.4498 -6.36491e-05 42.5907 1.08928e-07C42.7315 6.3867e-05 42.871 0.0281303 43.0011 0.0825749C43.1312 0.13702 43.2494 0.216788 43.349 0.317325L51.6883 8.72973C51.8386 8.88104 51.9408 9.07398 51.9822 9.28407C52.0236 9.49415 52.0021 9.71188 51.9206 9.90965C51.8391 10.1074 51.7012 10.2763 51.5243 10.3948C51.3475 10.5133 51.1398 10.5762 50.9275 10.5753H50.9234Z" fill="#464646"/>
<path d="M42.5759 18.999C42.4352 18.9998 42.2957 18.9721 42.1657 18.9176C42.0358 18.8631 41.9179 18.783 41.8192 18.6818C41.7194 18.5813 41.6403 18.462 41.5864 18.3306C41.5324 18.1993 41.5046 18.0584 41.5046 17.9162C41.5046 17.774 41.5324 17.6332 41.5864 17.5019C41.6403 17.3705 41.7194 17.2512 41.8192 17.1507L50.168 8.72728C50.3692 8.52424 50.6422 8.41016 50.9268 8.41016C51.2114 8.41016 51.4844 8.52424 51.6856 8.72728C51.8869 8.93032 51.9999 9.2057 51.9999 9.49285C51.9999 9.77999 51.8869 10.0554 51.6856 10.2584L43.3367 18.6818C43.2369 18.7826 43.1183 18.8626 42.9877 18.917C42.8571 18.9714 42.7172 18.9993 42.5759 18.999Z" fill="#464646"/>
</g>
<defs>
<clipPath id="clip0_555_86812">
<rect width="52" height="19" fill="white"/>
</clipPath>
</defs>
</svg>
